<svg width="52" height="51" viewBox="0 0 52 51" fill="none" xmlns="http://www.w3.org/2000/svg">
<path fill-rule="evenodd" clip-rule="evenodd" d="M1.61464 51H50.3809C50.6524 51 50.9128 50.8929 51.1048 50.7022C51.2968 50.5115 51.4047 50.2529 51.4047 49.9832V1.01679C51.4047 0.455232 50.9463 0 50.3809 0H1.61464C1.0492 0 0.59082 0.455232 0.59082 1.01679V49.9832C0.59082 50.5448 1.0492 51 1.61464 51ZM49.3705 48.9397H2.63846V2.11385H49.3705V48.9397Z" fill="#1A6BC6"/>
<rect x="4.57617" y="44" width="41.8467" height="2" fill="#1A6BC6"/>
<rect x="1.58691" y="8" width="48.8212" height="2" fill="#1A6BC6"/>
<rect x="4.57617" y="5" width="1.9927" height="2" fill="#3EC08E"/>
<rect x="7.56543" y="5" width="1.9927" height="2" fill="#3EC08E"/>
<rect x="11.5508" y="5" width="1.9927" height="2" fill="#3EC08E"/>
<path d="M16.5328 43H14.5784V32.0591H12.5091V43H10.5547V31.0229C10.5547 30.458 10.9893 30.0001 11.5255 30.0001H15.5109C15.7706 29.9965 16.0208 30.1027 16.2056 30.2949C16.3905 30.487 16.4945 30.7493 16.4945 31.0229L16.5328 43Z" fill="#3EC08E"/>
<path d="M24.5035 43H22.5577V24.0596H20.548V43H18.5254V23.0231C18.5254 22.458 18.961 22 19.4983 22H23.5306C24.0679 22 24.5035 22.458 24.5035 23.0231V43Z" fill="#3EC08E"/>
<path d="M33.4703 42H31.5245V28.9267H29.438V42H27.4922V27.9828C27.4922 27.44 27.9278 27 28.4651 27H32.4974C33.0347 27 33.4703 27.44 33.4703 27.9828V42Z" fill="#3EC08E"/>
<path d="M41.441 43H39.4908V20.1505H37.4258V43H35.4629V19.0215C35.4699 18.4552 35.9073 18 36.4444 18H40.4595C40.9945 18 41.4282 18.4573 41.4282 19.0215L41.441 43Z" fill="#3EC08E"/>
</svg>
