<svg width="229" height="47" viewBox="0 0 229 47" fill="none" xmlns="http://www.w3.org/2000/svg">
<path d="M216.987 17.5869C219.207 17.5869 221.243 18.3392 222.689 19.6514V17.8916H228.627V37.3398C228.627 43.2071 224.729 47 218.698 47C213.067 47 209.104 44.0823 208.601 39.5664L208.532 38.9541H214.332L214.445 39.3574C214.866 40.8417 216.443 41.7645 218.561 41.7646C220.102 41.7646 222.689 41.1899 222.689 37.3398V35.9102C221.22 37.2751 219.183 38.0605 216.987 38.0605C211.651 38.0605 207.777 33.7273 207.777 27.7559C207.777 21.864 211.651 17.5869 216.987 17.5869ZM13.4512 0.368164C22.496 0.368164 27.0195 5.56784 27.0195 11.8428C27.0195 16.4005 24.489 21.0121 18.458 22.6211L27.4502 37.7979H18.7275L10.4355 23.2109H6.88281V17.5801H13.1816C17.3813 17.58 19.2646 15.3818 19.2646 12.0039C19.2646 8.67882 17.3812 6.58793 13.1816 6.58789H0V0.368164H13.4512ZM47.7031 8.6709C58.3409 8.6709 66.7881 16.5054 66.7881 27.5664C66.7881 31.4454 65.7343 34.9109 63.9375 37.7979H54.502C57.3643 35.6999 59.0889 32.1361 59.0889 27.5664C59.0889 20.0511 54.4388 15.3398 47.7031 15.3398C40.9128 15.34 36.2627 20.0512 36.2627 27.5664C36.2627 32.1362 37.9891 35.6999 40.8623 37.7979H31.4434C29.6311 34.9109 28.5654 31.4454 28.5654 27.5664C28.5654 16.5055 37.17 8.67106 47.7031 8.6709ZM77.5127 37.7969H70.0273V9.71289H77.5127V37.7969ZM92.6094 17.6436C97.5391 17.6437 100.726 21.0106 100.726 26.2207V37.7783H94.8223V26.8633C94.8222 24.266 93.4916 22.7764 91.1719 22.7764C88.8094 22.7765 87.4542 24.2661 87.4541 26.8633V37.7783H81.5518V17.915H87.4541V19.4258C88.8127 18.2803 90.6253 17.6436 92.6094 17.6436ZM112.498 31.1982L117.226 17.9141H123.891L115.95 37.7783H108.973L101.07 17.9141H107.771L112.498 31.1982ZM133.305 17.3047C139.131 17.3047 143.201 21.3475 143.201 27.1357C143.201 27.8496 143.153 28.4778 143.056 29.0547L142.978 29.5156H129.294C129.687 31.5242 131.14 32.746 133.202 32.7461C134.773 32.7461 135.849 32.1058 136.498 30.7881L136.65 30.4766H142.908L142.699 31.1846C141.491 35.2525 137.891 37.7783 133.305 37.7783C127.378 37.7781 123.24 33.5689 123.24 27.541C123.24 21.4178 127.285 17.3049 133.305 17.3047ZM153.412 17.3047C158.155 17.3048 161.29 19.875 161.595 24.0137L161.638 24.6045H155.948L155.901 24.1045C155.787 22.8908 154.805 22.167 153.274 22.167C152.474 22.1671 151.131 22.33 151.131 23.4102C151.131 24.3335 152.455 24.7403 154.636 25.3018C157.609 26.0665 161.68 27.1153 161.768 31.5605C161.768 35.2253 158.471 37.7783 153.753 37.7783C148.865 37.7782 145.15 34.9383 144.921 31.0273L144.887 30.4434H150.794L150.853 30.9307C150.995 32.1189 152.175 32.9501 153.72 32.9502C155.146 32.9502 156.069 32.4077 156.069 31.5713C156.069 30.6865 154.739 30.2913 152.549 29.7451C149.517 28.9902 145.365 27.9554 145.364 23.4785C145.364 19.8435 148.674 17.3047 153.412 17.3047ZM171.208 17.9141H175.449V22.9121H171.208V31.4365C171.208 32.3535 171.43 32.6787 172.67 32.6787H175.449V37.7783H171.882C167.496 37.7783 165.271 35.6332 165.271 31.4023V22.9121H163.014V17.9141H165.271V13.2754H171.208V17.9141ZM183.93 37.7783H178.026V17.915H183.93V37.7783ZM197.853 17.6436C202.782 17.6436 205.97 21.0104 205.97 26.2207V37.7783H200.066V26.8633C200.066 24.2661 198.736 22.7764 196.416 22.7764C194.053 22.7764 192.698 24.266 192.698 26.8633V37.7783H186.796V17.915H192.698V19.4258C194.056 18.2805 195.869 17.6436 197.853 17.6436ZM218.219 22.8564C216.082 22.8566 213.783 24.3891 213.783 27.7559C213.783 31.062 216.014 32.7919 218.219 32.792C220.372 32.792 222.689 31.2365 222.689 27.8232C222.689 24.4099 220.372 22.8564 218.219 22.8564ZM133.169 22.3027C131.276 22.3027 129.866 23.4076 129.37 25.2285H137.069C136.756 23.4793 135.227 22.3028 133.169 22.3027ZM180.979 9.84961C182.606 9.84974 183.929 11.1605 183.93 12.7715C183.93 14.3827 182.606 15.6942 180.979 15.6943C179.351 15.6943 178.026 14.3827 178.026 12.7715C178.027 11.1604 179.351 9.84961 180.979 9.84961ZM73.96 0C76.0231 0.000150192 77.6934 1.65564 77.6934 3.69727V3.71289C77.6934 5.75452 76.0231 7.41001 73.96 7.41016H73.9434C71.8814 7.41016 70.209 5.75461 70.209 3.71289V3.69727C70.209 1.65555 71.8814 0 73.9434 0H73.96Z" fill="white"/>
</svg>
