<svg width="24" height="24" viewBox="0 0 24 24" fill="none" xmlns="http://www.w3.org/2000/svg">
<path d="M12 24C18.6274 24 24 18.6274 24 12C24 5.37258 18.6274 0 12 0C5.37258 0 0 5.37258 0 12C0 18.6274 5.37258 24 12 24Z" fill="#F0F0F0"/>
<path d="M2.48056 4.69385C1.53796 5.92024 0.827189 7.33375 0.41333 8.86933H6.65605L2.48056 4.69385Z" fill="#0052B4"/>
<path d="M23.5866 8.86929C23.1728 7.33375 22.4619 5.92024 21.5194 4.69385L17.344 8.86929H23.5866Z" fill="#0052B4"/>
<path d="M0.41333 15.1306C0.827236 16.6661 1.538 18.0797 2.48056 19.306L6.65591 15.1306H0.41333Z" fill="#0052B4"/>
<path d="M19.3058 2.48061C18.0794 1.538 16.6659 0.827236 15.1304 0.41333V6.656L19.3058 2.48061Z" fill="#0052B4"/>
<path d="M4.69385 21.5193C5.92024 22.4619 7.33375 23.1727 8.86929 23.5866V17.344L4.69385 21.5193Z" fill="#0052B4"/>
<path d="M8.86924 0.41333C7.33371 0.827236 5.92019 1.538 4.69385 2.48056L8.86924 6.65595V0.41333Z" fill="#0052B4"/>
<path d="M15.1304 23.5866C16.6659 23.1727 18.0794 22.4619 19.3058 21.5194L15.1304 17.344V23.5866Z" fill="#0052B4"/>
<path d="M17.344 15.1306L21.5194 19.3061C22.4619 18.0797 23.1728 16.6661 23.5866 15.1306H17.344Z" fill="#0052B4"/>
<path d="M23.8984 10.4348H13.5653H13.5653V0.101578C13.0529 0.034875 12.5305 0 12 0C11.4694 0 10.9471 0.034875 10.4348 0.101578V10.4347V10.4347H0.101578C0.034875 10.9471 0 11.4695 0 12C0 12.5306 0.034875 13.0529 0.101578 13.5652H10.4347H10.4347V23.8984C10.9471 23.9651 11.4694 24 12 24C12.5305 24 13.0529 23.9652 13.5652 23.8984V13.5653V13.5653H23.8984C23.9651 13.0529 24 12.5306 24 12C24 11.4695 23.9651 10.9471 23.8984 10.4348Z" fill="#D80027"/>
<path d="M15.1304 15.1304L20.4852 20.4852C20.7315 20.239 20.9664 19.9817 21.1906 19.7148L16.6061 15.1304H15.1304V15.1304Z" fill="#D80027"/>
<path d="M8.86951 15.1304H8.86941L3.51465 20.4851C3.76084 20.7314 4.01823 20.9664 4.28504 21.1905L8.86951 16.6059V15.1304Z" fill="#D80027"/>
<path d="M8.86927 8.8696V8.86951L3.51446 3.51465C3.26818 3.76084 3.03324 4.01823 2.80908 4.28504L7.3936 8.86955H8.86927V8.8696Z" fill="#D80027"/>
<path d="M15.1304 8.8698L20.4852 3.5149C20.239 3.26862 19.9817 3.03368 19.7148 2.80957L15.1304 7.39409V8.8698H15.1304Z" fill="#D80027"/>
</svg>
